<svg width="25" height="25" viewBox="0 0 25 25" fill="none" xmlns="http://www.w3.org/2000/svg">
<path d="M4.9775 10.7113C6.9575 14.6025 10.1475 17.7787 14.0387 19.7725L17.0637 16.7475C17.435 16.3763 17.985 16.2525 18.4663 16.4175C20.0063 16.9262 21.67 17.2013 23.375 17.2013C24.1313 17.2013 24.75 17.82 24.75 18.5763V23.375C24.75 24.1313 24.1313 24.75 23.375 24.75C10.4637 24.75 0 14.2863 0 1.375C0 0.61875 0.61875 0 1.375 0H6.1875C6.94375 0 7.5625 0.61875 7.5625 1.375C7.5625 3.09375 7.8375 4.74375 8.34625 6.28375C8.4975 6.765 8.3875 7.30125 8.0025 7.68625L4.9775 10.7113Z" fill="#C12199"/>
</svg>
