<svg width="101" height="92" viewBox="0 0 101 92" fill="none" xmlns="http://www.w3.org/2000/svg">
<path d="M16.8997 50.4278C16.8997 34.5956 29.6596 21.7611 45.3995 21.7611M16.8997 50.4278C16.8997 58.3035 20.0572 65.4372 25.1682 70.6187C25.6612 71.118 25.9076 71.3678 26.0531 71.6082C26.1919 71.8375 26.2727 72.0348 26.3347 72.2962C26.3997 72.5695 26.3997 72.881 26.3997 73.5035V84.8278C26.3997 86.1656 26.3997 86.8345 26.6586 87.3457C26.8862 87.7953 27.2496 88.1608 27.6964 88.3896C28.2045 88.65 28.8695 88.65 30.1997 88.65H39.2247C40.5548 88.65 41.22 88.65 41.7278 88.3896C42.1748 88.1608 42.5382 87.7953 42.7657 87.3457C43.0246 86.8345 43.0245 86.1656 43.0245 84.8278V82.9167C43.0245 81.5789 43.0246 80.91 43.2834 80.3988C43.5114 79.9492 43.8748 79.5837 44.3213 79.3549C44.8295 79.0945 45.4945 79.0945 46.8245 79.0945H53.4745C54.805 79.0945 55.47 79.0945 55.9778 79.3549C56.4248 79.5837 56.7882 79.9492 57.0157 80.3988C57.2746 80.91 57.2745 81.5789 57.2745 82.9167V84.8278C57.2745 86.1656 57.2746 86.8345 57.5334 87.3457C57.7614 87.7953 58.1248 88.1608 58.5713 88.3896C59.0795 88.65 59.7445 88.65 61.0745 88.65H70.1C71.43 88.65 72.095 88.65 72.6033 88.3896C73.0502 88.1608 73.4136 87.7953 73.6411 87.3457C73.9 86.8345 73.9 86.1656 73.9 84.8278V80.1661C73.9 79.201 73.9 78.718 74.0368 78.3305C74.1674 77.9593 74.3327 77.6994 74.6125 77.4232C74.9042 77.1356 75.3987 76.9048 76.3876 76.4428C81.0531 74.2641 85.034 70.8533 87.9177 66.6254C88.425 65.882 88.6782 65.5103 88.9495 65.2905C89.2083 65.0803 89.4406 64.9575 89.7588 64.8615C90.0923 64.7611 90.488 64.7611 91.2789 64.7611H93.85C95.18 64.7611 95.845 64.7611 96.3533 64.5007C96.8002 64.2719 97.1636 63.9064 97.3911 63.4568C97.65 62.9456 97.65 62.2767 97.65 60.9389V44.6261C97.65 43.3529 97.65 42.716 97.4149 42.2244C97.1812 41.737 96.7903 41.3438 96.3058 41.1087C95.817 40.8722 95.1838 40.8722 93.918 40.8722C93.0012 40.8722 92.5428 40.8722 92.1737 40.7471C91.7757 40.6123 91.4964 40.4327 91.2076 40.126C90.9402 39.8412 90.7212 39.3653 90.2842 38.4141C88.8806 35.3597 86.9587 32.596 84.6317 30.2371C84.1387 29.7374 83.8921 29.4876 83.7468 29.2473C83.6076 29.0181 83.5269 28.8207 83.4651 28.5596C83.4 28.286 83.4 27.9747 83.4 27.352V22.0506C83.4 20.3303 83.4 19.4702 83.0438 18.8921C82.7317 18.3857 82.2429 18.0148 81.6734 17.8521C81.0226 17.6665 80.2004 17.9028 78.556 18.3754L67.2866 21.6141C67.0947 21.6691 66.9992 21.6966 66.9018 21.7159C66.8154 21.7331 66.728 21.7454 66.6401 21.7528C66.5413 21.7611 66.4411 21.7611 66.2402 21.7611H45.3995M16.8997 50.4278H12.15C6.90332 50.4278 2.65002 46.1498 2.65002 40.8722C2.65002 37.3353 4.56047 34.2472 7.40002 32.595M45.3995 21.7611H64.2319C64.3425 20.9809 64.4 20.1833 64.4 19.3722C64.4 10.1368 56.9568 2.65002 47.775 2.65002C38.5933 2.65002 31.15 10.1368 31.15 19.3722C31.15 21.3655 31.4968 23.2774 32.1329 25.0501C36.0954 22.9499 40.6094 21.7611 45.3995 21.7611Z" stroke="black" stroke-width="5.3" stroke-linecap="round" stroke-linejoin="round"/>
</svg>
