<svg width="84" height="84" viewBox="0 0 84 84" fill="none" xmlns="http://www.w3.org/2000/svg">
<path d="M16.8933 36.3533C23.6133 49.56 34.44 60.34 47.6467 67.1067L57.9133 56.84C59.1733 55.58 61.04 55.16 62.6733 55.72C67.9 57.4467 73.5467 58.38 79.3333 58.38C81.9 58.38 84 60.48 84 63.0467V79.3333C84 81.9 81.9 84 79.3333 84C35.5133 84 0 48.4867 0 4.66667C0 2.1 2.1 0 4.66667 0H21C23.5667 0 25.6667 2.1 25.6667 4.66667C25.6667 10.5 26.6 16.1 28.3267 21.3267C28.84 22.96 28.4667 24.78 27.16 26.0867L16.8933 36.3533Z" fill="black"/>
</svg>
